/* XPM */
static char * closeu_xpm[] = {
"22 22 38 1",
" 	c None",
".	c #646464",
"+	c #6A6A6A",
"@	c #595959",
"#	c #333333",
"$	c #575757",
"%	c #343434",
"&	c #363636",
"*	c #363637",
"=	c #383838",
"-	c #3A3B3A",
";	c #3A3A3A",
">	c #3B3A3A",
",	c #3C3C3C",
"'	c #BBBBBB",
")	c #888888",
"!	c #3F3E3F",
"~	c #3E3E3F",
"{	c #3E3F3F",
"]	c #404040",
"^	c #434343",
"/	c #454544",
"(	c #454444",
"_	c #474747",
":	c #474647",
"<	c #494949",
"[	c #4B4B4B",
"}	c #4D4D4D",
"|	c #504F4F",
"1	c #4F4F4F",
"2	c #4F504F",
"3	c #515151",
"4	c #535354",
"5	c #535353",
"6	c #545453",
"7	c #555555",
"8	c #575857",
"9	c #585857",
".....................+",
"@@@@@@@@@@@@@@@@@@@@@.",
"#####################$",
"%%%%%%%%%%%%%%%%%%%%%$",
"&&&&&&&&&&&**********$",
"=====================$",
"-;;;;;;;;;;>>>>>>>>>>$",
",,,,,'),,,,)',,,,,,,,$",
"!~~~~)')~~)'){{{{{{{{$",
"]]]]]])'))')]]]]]]]]]$",
"^^^^^^^)'')^^^^^^^^^^$",
"/(((((()'')(((((((((($",
"_:::::)'))'):::::::::$",
"<<<<<)')<<)')<<<<<<<<$",
"[[[[[')[[[[)'[[[[[[[[$",
"}}}}}}}}}}}}}}}}}}}}}$",
"|11111111112222222222$",
"333333333333333333333$",
"455555555556666666666$",
"777777777777777777777$",
"888888888889999999999$",
"@@@@@@@@@@@@@@@@@@@@@$"};
