/* XPM */
static char * close_xpm[] = {
"22 22 43 1",
" 	c None",
".	c #3E3E3E",
"+	c #424242",
"@	c #313131",
"#	c #010101",
"$	c #383838",
"%	c #030303",
"&	c #020303",
"*	c #050505",
"=	c #050506",
"-	c #080707",
";	c #070707",
">	c #0A0B0A",
",	c #0A0A0A",
"'	c #0B0A0A",
")	c #0D0D0D",
"!	c #BBBBBB",
"~	c #888888",
"{	c #100F10",
"]	c #0F0F10",
"^	c #0F1010",
"/	c #121212",
"(	c #151515",
"_	c #181817",
":	c #181717",
"<	c #1A1A1A",
"[	c #1A191A",
"}	c #1C1C1D",
"|	c #1F1F1F",
"1	c #222122",
"2	c #252424",
"3	c #242424",
"4	c #242524",
"5	c #272727",
"6	c #29292A",
"7	c #292929",
"8	c #2A2A29",
"9	c #2C2C2C",
"0	c #2E2F2E",
"a	c #2F2F2E",
"b	c #303130",
"c	c #303030",
"d	c #303031",
".....................+",
"@@@@@@@@@@@@@@@@@@@@@.",
"#####################$",
"%&&&&&&&&&&&&&&&&&&&&$",
"***********==========$",
"-;;;;;;;;;;;;;;;;;;;;$",
">,,,,,,,,,,''''''''''$",
")))))!~))))~!))))))))$",
"{]]]]~!~]]~!~^^^^^^^^$",
"//////~!~~!~/////////$",
"(((((((~!!~(((((((((($",
"_::::::~!!~::::::::::$",
"<[[[[[~!~~!~[[[[[[[[[$",
"}}}}}~!~}}~!~}}}}}}}}$",
"|||||!~||||~!||||||||$",
"111111111111111111111$",
"233333333334444444444$",
"555555555555555555555$",
"677777777778888888888$",
"999999999999999999999$",
"00000000000aaaaaaaaaa$",
"bccccccccccdddddddddd$"};
