/* XPM */
static char * iconbaru_xpm[] = {
"2 22 30 1",
" 	c None",
".	c #646464",
"+	c #595959",
"@	c #333333",
"#	c #343434",
"$	c #363636",
"%	c #363637",
"&	c #383838",
"*	c #3A3B3A",
"=	c #3B3A3A",
"-	c #3C3C3C",
";	c #3F3E3F",
">	c #3E3F3F",
",	c #404040",
"'	c #434343",
")	c #454544",
"!	c #454444",
"~	c #474747",
"{	c #474647",
"]	c #494949",
"^	c #4B4B4B",
"/	c #4D4D4D",
"(	c #504F4F",
"_	c #4F504F",
":	c #515151",
"<	c #535354",
"[	c #545453",
"}	c #555555",
"|	c #575857",
"1	c #585857",
"..",
"++",
"@@",
"##",
"$%",
"&&",
"*=",
"--",
";>",
",,",
"''",
")!",
"~{",
"]]",
"^^",
"//",
"(_",
"::",
"<[",
"}}",
"|1",
"++"};
