/* XPM */
static char * iconu_xpm[] = {
"22 22 36 1",
" 	c None",
".	c #646464",
"+	c #595959",
"@	c #333333",
"#	c #343434",
"$	c #363636",
"%	c #363637",
"&	c #383838",
"*	c #3A3B3A",
"=	c #3A3A3A",
"-	c #3B3A3A",
";	c #3C3C3C",
">	c #3F3E3F",
",	c #3E3E3F",
"'	c #3E3F3F",
")	c #404040",
"!	c #434343",
"~	c #454544",
"{	c #454444",
"]	c #474747",
"^	c #474647",
"/	c #494949",
"(	c #888888",
"_	c #BBBBBB",
":	c #4B4B4B",
"<	c #4D4D4D",
"[	c #504F4F",
"}	c #4F4F4F",
"|	c #4F504F",
"1	c #515151",
"2	c #535354",
"3	c #535353",
"4	c #545453",
"5	c #555555",
"6	c #575857",
"7	c #585857",
"......................",
"++++++++++++++++++++++",
"@@@@@@@@@@@@@@@@@@@@@@",
"######################",
"$$$$$$$$$$$%%%%%%%%%%%",
"&&&&&&&&&&&&&&&&&&&&&&",
"*==========-----------",
";;;;;;;;;;;;;;;;;;;;;;",
">,,,,,,,,,,'''''''''''",
"))))))))))))))))))))))",
"!!!!!!!!!!!!!!!!!!!!!!",
"~{{{{{{{{{{{{{{{{{{{{{",
"]^^^^^^^^^^^^^^^^^^^^^",
"///////(______(///////",
":::::::(______(:::::::",
"<<<<<<<<<<<<<<<<<<<<<<",
"[}}}}}}}}}}|||||||||||",
"1111111111111111111111",
"2333333333344444444444",
"5555555555555555555555",
"6666666666677777777777",
"++++++++++++++++++++++"};
