/* XPM */
static char * maxp_xpm[] = {
"22 22 41 1",
" 	c None",
".	c #3E3E3E",
"+	c #313131",
"@	c #010101",
"#	c #030303",
"$	c #020303",
"%	c #050505",
"&	c #050506",
"*	c #080707",
"=	c #070707",
"-	c #0A0B0A",
";	c #0A0A0A",
">	c #0B0A0A",
",	c #0D0D0D",
"'	c #995500",
")	c #FF7700",
"!	c #100F10",
"~	c #0F0F10",
"{	c #0F1010",
"]	c #121212",
"^	c #151515",
"/	c #181817",
"(	c #181717",
"_	c #1A1A1A",
":	c #1A191A",
"<	c #1C1C1D",
"[	c #1F1F1F",
"}	c #222122",
"|	c #252424",
"1	c #242424",
"2	c #242524",
"3	c #272727",
"4	c #29292A",
"5	c #292929",
"6	c #2A2A29",
"7	c #2C2C2C",
"8	c #2E2F2E",
"9	c #2F2F2E",
"0	c #303130",
"a	c #303030",
"b	c #303031",
"......................",
"++++++++++++++++++++++",
"@@@@@@@@@@@@@@@@@@@@@@",
"#$$$$$$$$$$$$$$$$$$$$$",
"%%%%%%%%%%%&&&&&&&&&&&",
"*=====================",
"-;;;;;;;;;;>>>>>>>>>>>",
",,,,,,'))))))',,,,,,,,",
"!~~~~~)))))))){{{{{{{{",
"]]]]]])]]]]]])]]]]]]]]",
"^^^^^^)^^^^^^)^^^^^^^^",
"/((((()(((((()((((((((",
"_:::::)::::::)::::::::",
"<<<<<<)<<<<<<)<<<<<<<<",
"[[[[[['))))))'[[[[[[[[",
"}}}}}}}}}}}}}}}}}}}}}}",
"|111111111122222222222",
"3333333333333333333333",
"4555555555566666666666",
"7777777777777777777777",
"8888888888899999999999",
"0aaaaaaaaaabbbbbbbbbbb"};
