/* XPM */
static char * sticku_xpm[] = {
"22 22 32 1",
" 	c None",
".	c #6A6A6A",
"+	c #646464",
"@	c #595959",
"#	c #575757",
"$	c #333333",
"%	c #343434",
"&	c #363636",
"*	c #363637",
"=	c #383838",
"-	c #3A3A3A",
";	c #3B3A3A",
">	c #3C3C3C",
",	c #888888",
"'	c #BBBBBB",
")	c #3E3E3F",
"!	c #3E3F3F",
"~	c #404040",
"{	c #434343",
"]	c #454444",
"^	c #474647",
"/	c #494949",
"(	c #4B4B4B",
"_	c #4D4D4D",
":	c #4F4F4F",
"<	c #4F504F",
"[	c #515151",
"}	c #535353",
"|	c #545453",
"1	c #555555",
"2	c #575857",
"3	c #585857",
".+++++++++++++++++++++",
"+@@@@@@@@@@@@@@@@@@@@@",
"#$$$$$$$$$$$$$$$$$$$$$",
"#%%%%%%%%%%%%%%%%%%%%%",
"#&&&&&&&&&&***********",
"#=====================",
"#----------;;;;;;;;;;;",
"#>>>>>>>>>>,'',>>>>>>>",
"#)))))))))'',,''!!!!!!",
"#~~~~~~~~,'~~~~',~~~~~",
"#{{{{{{{{',{{{{,'{{{{{",
"#]]]]]]]]',]]]],']]]]]",
"#^^^^^^^^,'^^^^',^^^^^",
"#/////////'',,''//////",
"#((((((((((,'',(((((((",
"#_____________________",
"#::::::::::<<<<<<<<<<<",
"#[[[[[[[[[[[[[[[[[[[[[",
"#}}}}}}}}}}|||||||||||",
"#111111111111111111111",
"#222222222233333333333",
"#@@@@@@@@@@@@@@@@@@@@@"};
